<?xml version="1.0" encoding="UTF-8"?>
<svg id="Layer_1" data-name="Layer 1" xmlns="http://www.w3.org/2000/svg" version="1.1" viewBox="0 0 934.2 732.7">
  <defs>
    <style>
      .cls-1 {
        fill: #fecc0b;
      }

      .cls-1, .cls-2, .cls-3, .cls-4 {
        stroke-width: 0px;
      }

      .cls-2 {
        fill: #17509e;
      }

      .cls-3 {
        fill: #17519e;
      }

      .cls-4 {
        fill: #184d97;
      }
    </style>
  </defs>
  <g>
    <path class="cls-3" d="M153.2,462.8c-8,14.6-15,27.4-22.1,40.1-9.2,16.6-18.3,33.3-27.6,49.8-2.9,5.1-1.6,7.2,3.7,8.8,68.5,20.7,136.9,41.5,205.4,62.3,62.1,18.8,124.3,37.4,186.4,56.5,6.5,2,8.5-.6,10.9-5.4,29.5-59.1,59.2-118.2,88.8-177.3,4.8-9.6,9.8-19.1,14.4-28.9,2-4.3,4.7-5.8,9.6-5.8,101.4,0,202.9,0,304.3-.2,2.4,0,4.9.3,7.3.4-.5,12.4-2.5,14.4-13.3,14.4-85.6-.1-171.3-.1-256.9-.4-6.3,0-9.8,1.9-12.7,7.7-36.9,73.9-74.1,147.6-111.2,221.4-5.5,10.9-12.3,21.2-24.6,24.4-7.9,2-17.2,3.1-24.7.8-67.3-19.7-134.4-40.3-201.6-60.6-67.6-20.5-135.2-40.9-202.8-61.5-4.5-1.4-9.5-2.8-13-5.8-3.6-3-7-7.6-8-12.1-2.5-11.8-4.5-24-4.8-36-.1-7.2,2.2-15,5.5-21.5,11.6-22.3,24.1-44.2,36.4-66.1,1.1-2,3.3-4.8,5-4.9,14.6-.4,29.1-.2,45.6-.2Z"/>
    <path class="cls-4" d="M472.9,388c-18.1,0-36.2-.4-54.2.2-8.8.3-16.1-2.5-23-7.3-15.9-11.2-25.3-26.7-26.7-45.9-.8-11.5.2-23.4,2.6-34.6,3.8-18.2,16.2-30.2,33.2-36.4,6.1-2.2,13.5-1,20.4-1.1,1,0,2.8,1.5,2.8,2.3.2,5.5.4,11-.1,16.4,0,1.1-2.9,2.5-4.6,2.7-17.7,2.3-30.2,15.9-31,33.7-.9,17.9,4.7,33,19.4,43.7,4,2.9,9.6,4.9,14.5,5,34.6.4,69.1.3,103.7.3,8,0,12-2.9,13.7-9.6,2-7.7-.7-15.1-7.4-18.1-3.8-1.8-8.3-2.8-12.5-3-10.1-.4-20.1-.2-30.2-.1-26.5.2-40.2-18.4-35.8-44.2,3.1-17.9,15.5-28.6,33.9-29,23.6-.5,47.2,0,70.7-.1,3.8,0,5.3,1.4,5.2,5.2-.4,19.6,2.3,16-15.7,16.2-17.6.2-35.3,0-52.9.1-8.8,0-15.1,5-16.1,12-1.4,10,3.7,16.5,14,16.8,9.8.4,19.8-.7,29.5.4,8.9,1,18.1,3,26.3,6.6,14.9,6.6,16.7,21,16.5,35-.2,14.4-7.7,24.8-21.7,29.3-6,1.9-12.5,3-18.8,3.2-18.5.4-37.1.1-55.6.1h0Z"/>
    <path class="cls-4" d="M682.1,387.9c-28.2,0-56.3-.2-84.5.1-6.5,0-9.4-1.8-8.5-8.5.3-1.8.2-3.7,0-5.5-.8-5.7,2-7,7.2-6.9,28.6.2,57.2.1,85.9.1,9.6,0,10.9-1.1,10.9-10.5,0-16,.2-32.1,0-48.1-.2-17.4-8-24.9-25.6-24.9-19.7,0-39.4-.2-59.1.1-5.4,0-7.2-1.5-7-7,.5-16.8-2-14.3,14.1-14.4,22.9-.1,45.8.4,68.7,0,26.6-.6,38.5,15.6,39,39.3.4,19,.3,38,0,57-.1,6.4,1.4,9.3,8.4,8.6,6.4-.6,12.8-.4,19.2,0,6.2.4,7.2-2.8,7.2-8-.1-29.3.2-58.6-.2-87.9,0-6.9,1.7-9,8.8-8.9,19.8.4,19.8.1,19.8,19.7,0,28.2,0,56.3,0,84.5,0,15.6-5.5,21.2-21,21.2-27.7,0-55.4,0-83.1,0Z"/>
    <path class="cls-4" d="M930.1,318.8c0,16.2.1,32.5,0,48.7-.1,15.5-5.3,20.5-20.7,20.5-11.2,0-22.4.3-33.6-.2-6.6-.3-9.8,1.6-9.5,8.8.2,4.5-.8,9.1-1.7,13.5-2.6,13.4-11.7,19.7-24.6,21-7.9.8-16,.4-24,.6-4,0-5.9-1.6-5.5-5.8.2-2.3.2-4.6,0-6.9-.3-3.6,1.2-5,4.8-5.9,17.1-4.1,22.8-10.7,23-28.2.4-38,.5-76,.3-113.9,0-6.4,1.7-8.7,8-8.1,4.3.4,8.7.4,13,0,5.7-.6,6.9,1.7,6.9,7-.2,29.3,0,58.6,0,87.9,0,9,.3,9.3,9.2,9.3,6.2,0,12.4-.2,18.5.1,6,.3,8-2.1,8-8-.2-29.3,0-58.6,0-87.9q0-10.7,10.8-10.7,17,0,17.1,16.9c0,13.7,0,27.5,0,41.2h0Z"/>
    <path class="cls-4" d="M469.3,420c0,7.9-4.9,12.5-13.1,12.3-7.3-.2-12.5-5.6-12.2-12.7.3-7.5,5.2-11.9,12.9-11.8,8,.2,12.5,4.6,12.4,12.2Z"/>
    <path class="cls-4" d="M497.6,432.2c-7.4,0-12.9-5-13.1-11.9-.2-7.4,4.7-12.4,12.2-12.5,8.2,0,13.5,4.7,13.4,12.1,0,7.4-5.1,12.3-12.5,12.3Z"/>
    <path class="cls-4" d="M899.3,422c0-7.8,4.5-12.6,12.1-12.8,7.7-.2,13.4,5.1,13.3,12.6-.1,7.3-5.4,12.6-12.6,12.6-7.4,0-12.6-5.1-12.7-12.3Z"/>
    <path class="cls-4" d="M764.9,422.5c-.4,7.2-5.9,12-13.2,11.6-7.3-.5-12-5.9-11.5-13.3.4-7.2,5.5-11.9,12.5-11.6,7.8.3,12.7,5.6,12.3,13.3Z"/>
    <path class="cls-4" d="M778.9,421.7c0-7.6,4.9-12.8,12.2-12.7,7.5.1,12.8,5.1,12.9,12.2.1,7-5.4,12.7-12.4,12.8-7.1,0-12.6-5.3-12.7-12.4Z"/>
    <g>
      <path id="path3" class="cls-1" d="M359,556.7c-12.5,3.6-22.8,5-31.1,4.8l1.8-5.8h-12.1s-1.3,4.1-1.3,4.1c-23.8-7-19.2-33.4,2.1-45.3-18.5,21.8,19.7,29,34.9,36.2,4,1.9,6.4,3.8,5.7,6Z"/>
      <polygon id="polygon5" class="cls-2" points="364.5 576.2 363.6 579.3 356.1 579.3 357 576.2 364.5 576.2"/>
      <polygon id="polygon7" class="cls-2" points="325.4 575.1 324.4 578.4 322.7 578.4 316.7 578.4 317.7 575.1 323.7 575.1 325.4 575.1"/>
      <polygon id="polygon9" class="cls-2" points="316.4 575.4 315.4 578.8 310.5 578.8 307.7 578.8 308.7 575.4 311.5 575.4 316.4 575.4"/>
      <path id="path11" class="cls-2" d="M372,563.1l-1.9,6.2c-.4,1.2-1.8,2.3-4.5,2.4h-7.6s-2.8,0-2.8,0l-2.9,9.3c-.6,1.8-2.3,2.3-3.6,2.4h-8.7s-3.9,0-3.9,0c0,0-8.6,0-8.7,0-1.7-.1-2.1-1.1-2-1.9l2-6.4h11.2s-1.1,3.8-1.1,3.8c-.3,1.1,3.3,1.9,3.8.4l5-16.2h11.4s-1.3,4.1-1.3,4.1c.3,1.4,2.9,1.8,3.4.2l1.3-4.3h7.5s3.4,0,3.4,0Z"/>
      <path id="path13" class="cls-2" d="M360.1,556c19.2-7.2,36-26.8-53.6-63.5,91.7-11.7,104.4,47.3,53.6,63.5Z"/>
      <path id="path15" class="cls-2" d="M342.3,563l-2.2,7.1c-.2.7-1.2,1.6-2.7,1.5h-9s-2,0-2,0h-1.7s-6,0-6,0h-1.2s-4.9,0-4.9,0h-2.8s-.4,0-.4,0h-8c-1.8-.3-3.2-1.3-3.1-2.7l1.8-6h11.9s-1.4,4.7-1.4,4.7c0,.8,2.6,1.4,3.1.2l2.5-8,1.3-4.1h12.1s-1.8,5.8-1.8,5.8l-1.8,5.8c-.2,1,2.6,1.2,3,0l1.3-4.4h.7s11.2,0,11.2,0Z"/>
      <g id="g17">
        <g>
          <path id="path19" class="cls-2" d="M289.2,584.3l3.3-4.5.8.3.2,5.6-.7-.2v-1.5s-2-.6-2-.6l-.9,1.3-.7-.2ZM292.7,583.2v-2.6c0,0-1.6,2.1-1.6,2.1l1.6.5Z"/>
          <path id="path21" class="cls-2" d="M298.6,587.2l-3-.9,1.5-5,.7.2-1.4,4.4,2.3.7-.2.6h0Z"/>
          <path id="path23" class="cls-2" d="M302.3,588.4c-.4-.1-.7-.3-.9-.5-.3-.2-.5-.4-.6-.7-.1-.3-.2-.6-.2-1,0-.4,0-.8.2-1.2s.3-.8.5-1c.2-.3.5-.5.7-.7.3-.2.6-.2.9-.3.3,0,.7,0,1.1.1s.3.1.5.2c.1,0,.3.2.4.2.1,0,.2.2.3.3.1.1.2.2.3.3l-.2.8h0c0-.1-.1-.2-.2-.3,0,0-.2-.2-.3-.3-.1-.1-.3-.2-.4-.3-.2-.1-.3-.2-.6-.2-.5-.2-.9,0-1.4.2s-.7.7-.9,1.3-.2.6-.2.9c0,.3,0,.5.1.7,0,.2.2.4.4.6s.4.3.7.4.4.1.6.1c.2,0,.4,0,.5,0l.4-1.3-1.2-.4.2-.6,1.9.6-.7,2.2c0,0-.2,0-.4,0-.2,0-.3,0-.4,0-.2,0-.3,0-.5,0-.1,0-.3,0-.5-.1Z"/>
          <polygon class="cls-2" points="308.7 585.4 308.3 586.8 310.6 587.5 310.4 588.1 308.1 587.4 307.5 589.2 310 590 309.8 590.6 306.6 589.6 308.2 584.6 309.2 584.9 310 584 310.4 584.4 309.7 585.1 311.4 585.6 311.2 586.2 308.7 585.4"/>
          <path id="path27" class="cls-2" d="M315.3,592.3l-.9-.3-1-2.5-.8-.2-.6,2-.7-.2,1.5-5,1.3.4c.3,0,.5.2.7.3.2,0,.4.2.5.4.1.2.2.4.3.6s0,.4,0,.7-.3.6-.6.8c-.3.2-.6.3-.9.3l1.1,2.7ZM314.9,588.2c0-.1,0-.3,0-.4,0-.1,0-.2-.2-.4,0,0-.2-.2-.3-.2-.1,0-.3-.1-.5-.2l-.7-.2-.6,1.9.6.2c.2,0,.4,0,.5.1s.3,0,.5,0c.1,0,.2-.2.3-.3,0-.1.2-.3.2-.4Z"/>
          <path id="path29" class="cls-2" d="M317.4,592.9l-.7-.2.2-.5h0l1.2-4h0l.2-.5.7.2-.2.5h0l-1.2,4h0l-.2.5Z"/>
          <path id="path31" class="cls-2" d="M319.8,593.6l1.5-5,3.2,1-.2.6-2.5-.8-.4,1.4,2.3.7-.2.6-2.3-.7-.6,1.9,2.5.8-.2.6-3.2-1h0Z"/>
        </g>
      </g>
      <g id="g33">
        <g>
          <path id="path35" class="cls-2" d="M333.3,593.6c0,.3-.2.5-.4.7-.2.2-.4.3-.6.4-.1,0-.3.1-.4.1-.2,0-.3,0-.5,0-.2,0-.4,0-.6,0s-.4,0-.7-.1l-.9-.3-.5,1.8-1.6-.5,1.7-5.4,2.5.8c.4.1.7.2,1,.4s.5.3.7.5c.2.2.3.4.4.7,0,.3,0,.6,0,.9ZM331.6,593.2c0-.2,0-.3,0-.4s-.1-.2-.2-.3c-.1-.1-.3-.2-.4-.2-.1,0-.3-.1-.6-.2h-.2c0,0-.5,1.5-.5,1.5h.1c.2,0,.3.1.4.2.1,0,.3,0,.4,0,0,0,.2,0,.3,0,.1,0,.2,0,.3,0,.1,0,.2-.1.3-.2,0,0,.1-.2.2-.4Z"/>
          <path id="path37" class="cls-2" d="M340.4,596.9c-.3.9-.8,1.5-1.5,1.8-.7.3-1.6.3-2.6,0s-1.7-.8-2.1-1.5c-.4-.7-.5-1.4-.2-2.3s.8-1.5,1.5-1.8c.7-.3,1.6-.3,2.6,0s1.7.8,2.1,1.5c.4.7.5,1.4.2,2.3ZM338.7,596.4c0-.3.1-.6.1-.9,0-.3,0-.5-.2-.7,0-.2-.2-.3-.4-.5-.2-.1-.3-.2-.5-.3s-.4,0-.6,0c-.2,0-.4,0-.6.2-.2,0-.3.3-.5.5-.2.2-.3.5-.4.8s-.1.6-.1.9c0,.2,0,.5.2.6,0,.2.2.3.4.5.2.1.3.2.5.3s.4,0,.6,0c.2,0,.4,0,.6-.2.2-.1.4-.3.5-.4.1-.2.3-.4.4-.8Z"/>
          <path id="path39" class="cls-2" d="M343.1,600.8c-.5-.2-.9-.3-1.3-.5-.4-.2-.7-.4-1-.6l.4-1.3h.1c.3.4.6.7.9.9.4.2.7.4,1.1.5s.2,0,.4,0c.2,0,.3,0,.4,0,.1,0,.2,0,.3,0s.2-.1.2-.3,0-.3,0-.4c-.1-.1-.2-.2-.4-.3-.2-.1-.4-.2-.7-.4-.2-.1-.5-.2-.7-.4-.5-.3-.8-.6-.9-.9-.1-.3-.2-.7,0-1s.5-.8,1.2-1c.6-.2,1.3-.1,2.1.1s.8.3,1.1.5.7.4,1,.6l-.4,1.2h-.1c-.2-.3-.4-.5-.8-.8-.3-.2-.7-.4-1-.5s-.3,0-.4,0-.3,0-.4,0c-.1,0-.2,0-.3,0,0,0-.2.1-.2.2,0,.1,0,.3,0,.4,0,.1.3.3.6.4.2.1.4.2.6.3.2.1.4.2.6.4.4.3.7.6.8.9.2.3.2.6,0,1-.2.5-.6.9-1.2,1.1-.6.2-1.4.1-2.2-.1Z"/>
          <path id="path41" class="cls-2" d="M348.6,602.3l1.3-4.4-1.9-.6.3-1,5.5,1.7-.3,1-1.9-.6-1.3,4.4-1.6-.5Z"/>
          <path id="path43" class="cls-2" d="M353.3,603.8l1.7-5.4,4.4,1.4-.3,1-2.8-.9-.3.9,2.6.8-.3,1-2.6-.8-.4,1.4,2.8.9-.3,1-4.4-1.4h0Z"/>
        </g>
      </g>
    </g>
  </g>
  <g>
    <path class="cls-1" d="M128,194.6c36.9,0,73.8-.1,110.8.1,6.1,0,9.5-1.9,12.5-7.3,30.2-55,60.7-109.8,91.1-164.7,12-21.6,20.7-26.1,47.5-20.4,28.1,6,55.8,14.5,83.7,21.8,34.1,8.9,68.3,17.8,102.4,26.7,47.5,12.4,95,24.9,142.4,37.4,18.9,5,37.9,9.9,56.8,15,7.6,2.1,13.8,6.4,18,13.2,5.1,8.2,10.1,16.5,15.3,24.7,6.3,10,7,20.4,1.8,31-9,18.5-18.3,36.8-27.3,55.2-1.6,3.3-4.1,4.8-7.7,4.8-12.7,0-25.4,0-38.1,0-5.8,0-6.8-2.3-4.3-7.3,12.5-24.5,24.8-49,37.2-73.5.9-1.9,1.9-3.7,2.9-5.5,2.3-4.2,1.6-6.7-3.5-8-17.2-4.4-34.3-9-51.4-13.6-37.2-9.8-74.4-19.7-111.6-29.5-37-9.7-74-19.4-111-29.1-29.4-7.8-58.8-15.6-88.2-23.4-2.4-.6-4.9-1.2-7.4-1.7-10.4-2.1-14.8-.5-20.1,8.8-10.4,18.2-20.4,36.7-30.6,55-18.9,34.1-37.9,68.2-56.6,102.3-2.8,5-6.3,7.3-12.1,7.3-90-.1-180,0-270,0-8.1,0-8.9-1.3-6.7-9,2.9-9.9,3.6-10.4,14-10.4,36.7,0,73.4,0,110.1,0Z"/>
    <path class="cls-1" d="M81.7,371.7c31.9-.3,63.6-2.3,94.2-12.3,12.5-4.1,23.7-10.2,31.7-21.2,1.5-2,3-5.7,6.3-3.6,2.9,1.8,1.8,5.2.5,7.6-8.2,16.4-19.1,30.4-35.8,39.1-16.6,8.6-34.4,12.8-52.7,16-25.1,4.3-50.3,5.8-75.8,5.1-9-.3-17.9-1.7-26.6-4.3-19.2-5.8-24.8-14-22.5-33.7,1-8.4,2.8-16.8,5.8-24.9,1.1-2.8,2.3-6.4,6-5.6,4.3.9,2.5,4.7,2.2,7.5-1.3,10.5,1.7,16.6,11.1,21.6,11.2,6,23.5,8.2,36,8.7,6.5.3,12.9,0,19.4,0Z"/>
    <path class="cls-1" d="M339.7,337.9c0,6.8-10.8,20.9-15.8,22-2.7.6-5-.8-7.2-1.8-7.5-3.1-13.7-1.7-19.3,4.3-4.5,4.8-7.9,10.2-11,15.8-3.7,6.7-8.7,11.2-16.5,12-3.5.4-5.9,1.8-7.5,4.5-.6,1-1.2,2.2-1.6,3.5-.2.5-.3,1-.5,1.5-5,10.5-19.1,35.1-47.6,49.1-4.2,1.7-8.4,3.4-12.7,5.1-.3.1-.6.2-.9.3,0,0-.2,0-.2,0-.3,0-.6.2-.9.3,0,0,0,0,0,0-1.8.5-3.7.4-4.7-1.7-1.3-2.7,1.5-4,3.3-5.3,12.6-9.7,25.8-18.6,37.6-29.2,5.4-4.8,10-10.2,13.5-16.5,2.5-4.5,2.3-7.8-3.8-8.8-4.1-.7-8.2-1.6-12.1-2.8-9.1-2.7-11.6-8-8.2-16.7,3.9-9.9,7.3-20,13-29,6.2-9.8,14.9-9.7,20.9.5,2,3.3,3.3,7.1,4.6,10.8,1.5,4.2,4.1,5.9,8.7,6.2,11,.6,18.8-4.5,24.3-13.1,7.7-12.2,19.8-19.9,29.3-30.1,1.5-1.6,3.6-3.1,5.3-.9,4.7,6.3,7.8,13.5,10.1,19.7Z"/>
    <path class="cls-1" d="M124.1,429.6c.2,3.7-.6,5.9-2.3,7.5-4.7,4.4-9.8,8.4-15.3,11.8-3,1.9-5.7,1.5-7.8-1.4-3.4-4.7-7.5-8.8-11.9-12.5-3.2-2.8-3.1-5.3.1-7.9,5.1-4.3,10.2-8.7,15.1-13.1,3.4-3.1,6.6-3.1,9.7.2,4.8,5.1,11.4,8.9,12.4,15.5Z"/>
  </g>
  <g>
    <path class="cls-1" d="M70.6,278.6v-.2c0-12.2,9.5-22.5,22.5-22.5s22.4,10.2,22.4,22.3v.2c0,12.2-9.6,22.5-22.6,22.5s-22.3-10.2-22.3-22.3ZM108.9,278.6v-.2c0-9.2-6.9-16.8-16-16.8s-15.7,7.6-15.7,16.6v.2c0,9.2,6.8,16.7,15.9,16.7s15.8-7.5,15.8-16.6Z"/>
    <path class="cls-1" d="M120.7,301v-4.8l15.8-15.4-15.8-15.4v-4.8h29v4.8h-23.5l15.5,15.4v.2l-15.5,15.4h23.5v4.6h-29Z"/>
    <path class="cls-1" d="M190.1,301v-4.8l15.8-15.4-15.8-15.4v-4.8h29v4.8h-23.5l15.5,15.4v.2l-15.5,15.4h23.5v4.6h-29Z"/>
    <path class="cls-1" d="M22.5,256.1c-13,0-22.5,10.3-22.5,22.5v.2c0,12.2,9.4,22.3,22.3,22.3s22.6-10.3,22.6-22.5v-.2c0-12.2-9.5-22.3-22.4-22.3ZM22.3,261.7c8.1,0,14.5,6,15.7,13.9H6.8c1.1-7.8,7.2-13.9,15.5-13.9ZM22.5,295.3c-8.1,0-14.4-6-15.7-13.8h31.3c-1.2,7.8-7.2,13.8-15.6,13.8Z"/>
    <path class="cls-1" d="M317.3,256.1c-13,0-22.5,10.3-22.5,22.5v.2c0,12.2,9.4,22.3,22.3,22.3s22.6-10.3,22.6-22.5v-.2c0-12.2-9.5-22.3-22.4-22.3ZM317.1,261.7c8.1,0,14.5,6,15.7,13.9h-31.3c1.1-7.8,7.2-13.9,15.5-13.9ZM317.3,295.3c-8.1,0-14.4-6-15.7-13.8h31.3c-1.2,7.8-7.2,13.8-15.6,13.8Z"/>
    <circle class="cls-1" cx="58.1" cy="279.8" r="6.9"/>
    <circle class="cls-1" cx="282.5" cy="267.2" r="5.5"/>
    <circle class="cls-1" cx="282.5" cy="289.6" r="5.5"/>
    <polygon class="cls-1" points="245 260.5 245 297.1 270.7 297.1 270.7 301.2 239.9 301.2 239.9 256.1 270.7 256.1 270.7 260.5 245 260.5"/>
    <path class="cls-1" d="M187,301.1h-4.4l-12.4-34.7-12.5,34.7h-4.2l15-40.5h3.5l15,40.5Z"/>
  </g>
</svg>