<svg width="1611" height="1611" viewBox="0 0 1611 1611" fill="none" xmlns="http://www.w3.org/2000/svg">
<rect x="50" y="50" width="1511" height="1511" rx="755.5" fill="#93C7FF"/>
<rect x="50" y="50" width="1511" height="1511" rx="755.5" stroke="#007BFF" stroke-width="100"/>
<path d="M468.078 1087.78H313V525.281H716.906V597.156H468.078V770.984H660.266V842.469H468.078V1087.78Z" fill="#007BFF"/>
<path d="M1299.72 664.734L1232.92 692.859C1227.71 675.932 1220.68 660.438 1211.83 646.375C1203.23 632.312 1192.82 620.333 1180.58 610.438C1168.6 600.281 1154.93 592.469 1139.56 587C1124.2 581.271 1107.4 578.406 1089.17 578.406C1069.64 578.406 1051.67 581.661 1035.27 588.172C1019.12 594.422 1004.54 603.146 991.516 614.344C978.755 625.542 967.557 638.562 957.922 653.406C948.286 668.25 940.214 684.135 933.703 701.062C927.193 717.729 922.375 735.047 919.25 753.016C916.125 770.984 914.562 788.562 914.562 805.75C914.562 833.094 917.688 860.307 923.938 887.391C930.448 914.474 940.604 938.823 954.406 960.438C968.469 982.052 986.568 999.63 1008.7 1013.17C1030.84 1026.45 1057.66 1033.09 1089.17 1033.09C1105.84 1033.09 1121.59 1030.36 1136.44 1024.89C1151.28 1019.16 1164.69 1011.48 1176.67 1001.84C1188.91 991.948 1199.59 980.359 1208.7 967.078C1217.82 953.797 1225.11 939.474 1230.58 924.109L1298.16 951.062C1288.26 975.802 1274.72 997.547 1257.53 1016.3C1240.34 1034.79 1220.68 1050.15 1198.55 1062.39C1176.67 1074.63 1153.1 1083.74 1127.84 1089.73C1102.84 1095.98 1077.58 1099.11 1052.06 1099.11C1024.46 1099.11 997.896 1095.72 972.375 1088.95C947.115 1082.18 923.547 1072.55 901.672 1060.05C879.797 1047.55 859.875 1032.44 841.906 1014.73C824.198 997.026 808.964 977.365 796.203 955.75C783.703 934.135 773.938 910.698 766.906 885.438C760.135 859.917 756.75 833.354 756.75 805.75C756.75 778.146 760.135 751.714 766.906 726.453C773.938 700.932 783.703 677.365 796.203 655.75C808.964 633.875 824.198 614.083 841.906 596.375C859.875 578.667 879.797 563.562 901.672 551.062C923.547 538.562 947.115 528.927 972.375 522.156C997.896 515.385 1024.46 512 1052.06 512C1078.62 512 1104.54 515.125 1129.8 521.375C1155.32 527.625 1179.02 537.13 1200.89 549.891C1222.77 562.391 1242.17 578.276 1259.09 597.547C1276.28 616.557 1289.82 638.953 1299.72 664.734Z" fill="#007BFF"/>
</svg>
