<svg width="839" height="517" viewBox="0 0 839 517" fill="none" xmlns="http://www.w3.org/2000/svg">
<mask id="mask0_1_33" style="mask-type:luminance" maskUnits="userSpaceOnUse" x="0" y="0" width="839" height="517">
<path d="M0.333252 0.703125H838.167V516.703H0.333252V0.703125Z" fill="white"/>
</mask>
<g mask="url(#mask0_1_33)">
<path d="M448.958 119.87L436.292 127.714L477.74 43.4323C490.609 17.276 517.255 0.703125 546.422 0.703125C575.844 0.703125 602.646 17.5521 615.396 44.0573L779.406 384.135C782.24 390.037 786.807 394.927 792.505 398.177C802.771 404.026 815.417 403.781 825.453 397.568L838.115 389.724L796.672 474.005C783.802 500.162 757.172 516.734 727.99 516.734C698.568 516.734 671.766 499.88 659.016 473.38L495.005 133.302C492.172 127.401 487.604 122.505 481.906 119.26C471.641 113.411 458.995 113.656 448.958 119.87Z" fill="#36006F"/>
<path fill-rule="evenodd" clip-rule="evenodd" d="M5.09368 426.38L27.7656 473.396C40.4947 499.901 67.3176 516.755 96.7395 516.755C125.906 516.755 152.552 500.177 165.422 474.021L206.87 389.74L194.203 397.583C184.167 403.818 171.521 404.042 161.255 398.193C155.557 394.948 150.99 390.052 148.156 384.151L112.948 311.151C99.4687 283.208 59.7083 283.052 46.0208 310.891L5.2343 393.818C0.18222 404.078 0.145761 416.089 5.09368 426.38Z" fill="#888AFF"/>
<path d="M181.713 119.26C187.411 122.505 191.979 127.401 194.812 133.302L358.823 473.38C371.552 499.88 398.375 516.734 427.797 516.734C456.963 516.734 483.609 500.162 496.479 474.005L537.927 389.724L525.266 397.568C515.224 403.797 502.578 404.026 492.312 398.177C486.615 394.927 482.047 390.037 479.213 384.135L315.203 44.0573C302.458 17.5521 275.656 0.703125 246.229 0.703125C217.062 0.703125 190.417 17.276 177.547 43.4323L136.104 127.714L148.766 119.87C158.802 113.656 171.448 113.411 181.713 119.26Z" fill="#5700B4"/>
</g>
</svg>
